<svg width="36" height="37" viewBox="0 0 36 37" fill="none" xmlns="http://www.w3.org/2000/svg">
<path d="M35.7825 17.5875C32.3931 10.9744 25.6831 6.5 18 6.5C10.3168 6.5 3.60497 10.9775 0.217466 17.5881C0.074492 17.8709 0 18.1834 0 18.5003C0 18.8172 0.074492 19.1297 0.217466 19.4125C3.60684 26.0256 10.3168 30.5 18 30.5C25.6831 30.5 32.395 26.0225 35.7825 19.4119C35.9254 19.1291 35.9999 18.8166 35.9999 18.4997C35.9999 18.1828 35.9254 17.8703 35.7825 17.5875ZM18 27.5C16.2199 27.5 14.4799 26.9722 12.9998 25.9832C11.5198 24.9943 10.3662 23.5887 9.68505 21.9441C9.00386 20.2996 8.82563 18.49 9.1729 16.7442C9.52017 14.9984 10.3773 13.3947 11.636 12.136C12.8947 10.8774 14.4983 10.0202 16.2442 9.67293C17.99 9.32567 19.7996 9.5039 21.4441 10.1851C23.0887 10.8663 24.4943 12.0198 25.4832 13.4999C26.4721 14.9799 27 16.72 27 18.5C27.0005 19.6821 26.7681 20.8526 26.3161 21.9448C25.864 23.037 25.2011 24.0294 24.3652 24.8652C23.5294 25.7011 22.537 26.364 21.4448 26.8161C20.3526 27.2682 19.182 27.5006 18 27.5ZM18 12.5C17.4644 12.5075 16.9323 12.5872 16.4181 12.7369C16.842 13.3129 17.0454 14.0218 16.9914 14.735C16.9375 15.4481 16.6297 16.1183 16.124 16.6241C15.6183 17.1298 14.9481 17.4375 14.2349 17.4915C13.5218 17.5454 12.8129 17.342 12.2368 16.9181C11.9088 18.1266 11.968 19.4075 12.4061 20.5806C12.8443 21.7537 13.6392 22.7599 14.6791 23.4575C15.719 24.1551 16.9515 24.509 18.2031 24.4695C19.4547 24.43 20.6623 23.9989 21.6561 23.2371C22.6499 22.4752 23.3798 21.4209 23.743 20.2225C24.1062 19.0241 24.0844 17.742 23.6808 16.5566C23.2771 15.3712 22.5119 14.3423 21.4929 13.6146C20.4738 12.8869 19.2522 12.4971 18 12.5Z" fill="black"/>
</svg>
