<svg width="36" height="36" viewBox="0 0 36 36" fill="none" xmlns="http://www.w3.org/2000/svg">
<path d="M17.9998 28.1249C13.7333 28.1249 10.2795 23.9969 9.96172 18.7657L4.06112 13.0655C3.28543 14.2819 2.57162 15.5679 1.99562 16.9742C1.86695 17.2923 1.7999 17.6438 1.7999 18.0004C1.7999 18.3569 1.86695 18.7084 1.99562 19.0266C5.04605 26.4662 11.085 31.4999 17.9998 31.4999C19.5135 31.4999 20.9738 31.2186 22.3811 30.7644L19.4623 27.9414C18.9803 28.0578 18.4908 28.1192 17.9998 28.1249ZM35.6521 32.21L29.4337 26.2026C31.3227 24.2127 32.8763 21.7731 34.004 19.0258C34.1327 18.7077 34.1997 18.3562 34.1997 17.9996C34.1997 17.6431 34.1327 17.2916 34.004 16.9734C30.9536 9.53376 24.9146 4.50014 17.9998 4.50014C15.1038 4.50452 12.2548 5.41586 9.7131 7.15089L2.557 0.237135C2.46368 0.146368 2.35697 0.0794754 2.24296 0.0402799C2.12895 0.00108441 2.00988 -0.00964574 1.89256 0.00870265C1.77523 0.027051 1.66195 0.0741183 1.55918 0.147215C1.45641 0.220311 1.36618 0.318004 1.29362 0.434711L0.18944 2.21149C0.0429649 2.44702 -0.0226698 2.74564 0.00697167 3.04165C0.0366131 3.33767 0.159103 3.60685 0.347502 3.78999L33.4426 35.7629C33.536 35.8536 33.6427 35.9205 33.7567 35.9597C33.8707 35.9989 33.9898 36.0096 34.1071 35.9913C34.2244 35.9729 34.3377 35.9259 34.4405 35.8528C34.5432 35.7797 34.6335 35.682 34.706 35.5653L35.8108 33.7885C35.9572 33.5529 36.0227 33.2542 35.993 32.9582C35.9632 32.6622 35.8406 32.393 35.6521 32.21ZM25.3179 22.2257L23.1073 20.0897C23.2935 19.4171 23.3922 18.7116 23.3998 18C23.4108 16.9582 23.2261 15.9276 22.8607 14.9912C22.4952 14.0547 21.9592 13.2385 21.2956 12.6079C20.632 11.9774 19.8593 11.5502 19.0397 11.3607C18.2201 11.1712 17.3763 11.2245 16.5761 11.5166C16.9153 12.0911 17.0988 12.786 17.0998 13.5C17.0914 13.7377 17.0624 13.9734 17.0132 14.2032L12.8727 10.2031C14.3109 8.70071 16.1254 7.87683 17.9998 7.8751C19.0637 7.87436 20.1172 8.13575 21.1003 8.64431C22.0833 9.15287 22.9764 9.89864 23.7287 10.839C24.481 11.7793 25.0776 12.8958 25.4844 14.1245C25.8913 15.3532 26.1004 16.6702 26.0998 18C26.0998 19.5208 25.8022 20.9383 25.3179 22.2264V22.2257Z" fill="black"/>
</svg>
